<svg xmlns="http://www.w3.org/2000/svg" width="598" height="528" viewBox="0 0 598 528">
  <defs>
    <style>
      .cls-1, .cls-2, .cls-3 {
        fill: #443f9f;
      }

      .cls-2 {
        stroke: #fff;
        stroke-width: 20px;
      }

      .cls-2, .cls-3 {
        fill-rule: evenodd;
      }
    </style>
  </defs>
  <circle class="cls-1" cx="310" cy="259" r="229"/>
  <path class="cls-2" d="M322.565,417.114c-90.962,0-164.7-73.924-164.7-165.114s73.742-164.363,164.7-165.114m0,330.228c-90.962,0-164.7-73.924-164.7-165.114S231.6,86.886,322.565,86.886"/>
  <path class="cls-3" d="M323.013,166c47.5,0,86,38.728,86,86.5s-38.5,86.5-86,86.5-86-38.728-86-86.5S275.518,166,323.013,166Z"/>
  <path class="cls-2" d="M408.99,261.99a82.978,82.978,0,1,1-165.955,0"/>
  <path id="Line_1" data-name="Line 1" class="cls-2" d="M339.207,258.992v-1.845h69.928v1.845H339.207Z"/>
  <path id="Line_1-2" data-name="Line 1" class="cls-2" d="M322.758,347.613H324.6v69.929h-1.845V347.613Zm0,0H324.6v69.929h-1.845V347.613Z"/>
  <path class="cls-2" d="M324.985,344.787c-51.8,0-93.787-42.213-93.787-94.286s41.99-94.287,93.787-94.287"/>
  <path id="Line_1-3" data-name="Line 1" class="cls-2" d="M325.758,86.613H327.6v69.929h-1.845V86.613Zm0,0H327.6v69.929h-1.845V86.613Z"/>
</svg>
